<?xml version="1.0" encoding="UTF-8" standalone="no"?>
<svg width="57px" height="65px" viewBox="0 0 57 65" version="1.1" xmlns="http://www.w3.org/2000/svg" xmlns:xlink="http://www.w3.org/1999/xlink">
    <!-- Generator: Sketch 3.6.1 (26313) - http://www.bohemiancoding.com/sketch -->
    <title>全国包邮</title>
    <desc>Created with Sketch.</desc>
    <defs></defs>
    <g id="Page-2" stroke="none" stroke-width="1" fill="none" fill-rule="evenodd">
        <g id="全国包邮" transform="translate(-32.000000, -28.000000)">
            <g transform="translate(34.000000, 30.000000)">
                <path d="M26.0407987,60 C26.0407987,60 2.71219308,49.6970654 0.894631179,36.0603911 C-0.922899993,22.4239473 0.591503725,6.06039105 0.591503725,6.06039105 C0.591503725,6.06039105 18.4728212,8.52651283e-14 26.0407988,8.52651283e-14 C33.6087764,8.52651283e-14 51.5087988,6.06039105 51.5087988,6.06039105 C51.5087988,6.06039105 53.0246165,22.4240765 51.2056111,36.0603911 C49.3865574,49.6970675 26.0407987,60 26.0407987,60 Z" id="Shape" stroke="#D21F16" stroke-width="4" transform="translate(26.050455, 30.000000) scale(-1, 1) translate(-26.050455, -30.000000) "></path>
                <path d="M34.232,20.304 C34.008,28.06 33.7,30.888 33.168,31.56 C32.916,31.896 32.664,31.952 32.244,31.924 C31.768,31.952 30.648,31.924 29.444,31.812 C29.724,32.372 29.948,33.212 29.976,33.8 C31.292,33.884 32.496,33.884 33.224,33.8 C33.98,33.716 34.512,33.492 34.988,32.848 C35.772,31.84 36.052,28.592 36.36,19.296 L36.36,18.316 L20.904,18.316 C21.52,17.28 22.108,16.188 22.612,15.04 L20.512,14.424 C18.888,18.232 16.144,21.844 13.064,24.112 C13.596,24.448 14.408,25.232 14.8,25.624 C16.508,24.224 18.16,22.404 19.644,20.304 L34.232,20.304 Z M26.868,25.064 L26.868,29.572 L19.588,29.572 L19.588,25.064 L26.868,25.064 Z M23.088,37.58 C20.12,37.58 19.588,37.188 19.588,35.676 L19.588,31.448 L28.912,31.448 L28.912,23.188 L17.544,23.188 L17.544,35.676 C17.544,38.784 18.832,39.54 23.2,39.54 L33.756,39.54 C37.536,39.54 38.376,38.504 38.796,34.836 C38.208,34.724 37.312,34.416 36.808,34.08 C36.5,36.964 36.108,37.58 33.728,37.58 L23.088,37.58 Z" id="包" fill="#D21F16"></path>
            </g>
        </g>
    </g>
</svg>