<?xml version="1.0" encoding="UTF-8" standalone="no"?>
<svg width="57px" height="65px" viewBox="0 0 57 65" version="1.1" xmlns="http://www.w3.org/2000/svg" xmlns:xlink="http://www.w3.org/1999/xlink">
    <!-- Generator: Sketch 3.6.1 (26313) - http://www.bohemiancoding.com/sketch -->
    <title>7天无忧</title>
    <desc>Created with Sketch.</desc>
    <defs></defs>
    <g id="Page-2" stroke="none" stroke-width="1" fill="none" fill-rule="evenodd">
        <g id="7天无忧" transform="translate(-32.000000, -28.000000)">
            <g transform="translate(34.000000, 30.000000)">
                <path d="M26.0407987,60 C26.0407987,60 2.71219308,49.6970654 0.894631179,36.0603911 C-0.922899993,22.4239473 0.591503725,6.06039105 0.591503725,6.06039105 C0.591503725,6.06039105 18.4728212,8.52651283e-14 26.0407988,8.52651283e-14 C33.6087764,8.52651283e-14 51.5087988,6.06039105 51.5087988,6.06039105 C51.5087988,6.06039105 53.0246165,22.4240765 51.2056111,36.0603911 C49.3865574,49.6970675 26.0407987,60 26.0407987,60 Z" id="Shape" stroke="#D21F16" stroke-width="4" transform="translate(26.050455, 30.000000) scale(-1, 1) translate(-26.050455, -30.000000) "></path>
                <path d="M23.544,38 L26.204,38 C26.512,29.964 27.408,25.204 32.224,19.016 L32.224,17.476 L19.372,17.476 L19.372,19.66 L29.312,19.66 C25.308,25.26 23.88,30.216 23.544,38 L23.544,38 Z" id="7" fill="#D21F16"></path>
            </g>
        </g>
    </g>
</svg>